<svg width="48" height="48" viewBox="0 0 48 48" fill="none" xmlns="http://www.w3.org/2000/svg">
<path d="M24 4C12.9543 4 4 12.9543 4 24C4 35.0457 12.9543 44 24 44C35.0457 44 44 35.0457 44 24C44 12.9543 35.0457 4 24 4Z" fill="#6A0DAD"/>
<path d="M24.0002 10.6667C19.2935 10.6667 15.3335 14.6267 15.3335 19.3333C15.3335 22.4133 17.0268 25.0933 19.6002 26.5733L19.6002 32.6667H22.2668V26.4C22.9468 26.4933 23.6535 26.5467 24.3735 26.5467C24.7468 26.5467 25.1068 26.52 25.4668 26.48L25.4668 32.6667H28.1335V26.5733C30.7068 25.0933 32.4002 22.4133 32.4002 19.3333C32.4002 14.6267 28.4402 10.6667 23.7335 10.6667H24.0002ZM24.0002 13.3333C26.9468 13.3333 29.3335 15.72 29.3335 18.6667C29.3335 21.6133 26.9468 24 24.0002 24C21.0535 24 18.6668 21.6133 18.6668 18.6667C18.6668 15.72 21.0535 13.3333 24.0002 13.3333Z" fill="white"/>
<path d="M21.3334 34.6667H26.6667V37.3333H21.3334V34.6667Z" fill="white"/>
</svg>